{
	"asset":{
		"generator":"Khronos glTF Blender I/O v3.5.30",
		"version":"2.0"
	},
	"scene":0,
	"scenes":[
		{
			"name":"Scene",
			"nodes":[
				0,
				1,
				2,
				3,
				4,
				5,
				6,
				7,
				8,
				9,
				10,
				11,
				12,
				13,
				14,
				15,
				16,
				17
			]
		}
	],
	"nodes":[
		{
			"mesh":0,
			"name":"Cube",
			"scale":[
				1.340604543685913,
				1,
				1
			],
			"translation":[
				-0.4173329174518585,
				-0.09844472259283066,
				-2.34281063079834
			]
		},
		{
			"mesh":1,
			"name":"Cylinder",
			"rotation":[
				0,
				0,
				0.6983435750007629,
				0.7157626748085022
			],
			"scale":[
				0.275696337223053,
				0.3707561790943146,
				0.3345402479171753
			],
			"translation":[
				-1.1273748874664307,
				-1.2354815006256104,
				-1.428773283958435
			]
		},
		{
			"mesh":2,
			"name":"Cylinder.001",
			"rotation":[
				0.6129621267318726,
				0,
				0,
				0.790112316608429
			],
			"scale":[
				0.10835117101669312,
				0.10835117101669312,
				0.10835117101669312
			],
			"translation":[
				0.6380679607391357,
				0.4466474652290344,
				-1.8241055011749268
			]
		},
		{
			"mesh":3,
			"name":"Cylinder.002",
			"rotation":[
				0.6129621267318726,
				0,
				0,
				0.790112316608429
			],
			"scale":[
				0.05518091097474098,
				0.05518091842532158,
				0.05518091842532158
			],
			"translation":[
				0.62531977891922,
				0.16970840096473694,
				-1.7204664945602417
			]
		},
		{
			"mesh":4,
			"name":"Cylinder.003",
			"rotation":[
				0.6129621267318726,
				0,
				0,
				0.790112316608429
			],
			"scale":[
				0.05518091097474098,
				0.05518091842532158,
				0.05518091842532158
			],
			"translation":[
				0.7728300094604492,
				0.16970840096473694,
				-1.7204664945602417
			]
		},
		{
			"mesh":5,
			"name":"Cube.003",
			"rotation":[
				-0.13222987949848175,
				0,
				0,
				0.9912191033363342
			],
			"scale":[
				0.069141685962677,
				0.069141685962677,
				0.069141685962677
			],
			"translation":[
				0.6943970322608948,
				-0.05547524243593216,
				-1.675202488899231
			]
		},
		{
			"mesh":6,
			"name":"Cylinder.004",
			"rotation":[
				0.6129621267318726,
				0,
				0,
				0.790112316608429
			],
			"scale":[
				0.09542698413133621,
				0.09542699158191681,
				0.09542699158191681
			],
			"translation":[
				0.6927579641342163,
				-0.2817195951938629,
				-1.603511095046997
			]
		},
		{
			"mesh":7,
			"name":"Cylinder.005",
			"rotation":[
				0.6205000281333923,
				0,
				0,
				0.7842065691947937
			],
			"scale":[
				0.07229864597320557,
				0.07229864597320557,
				0.07229864597320557
			],
			"translation":[
				-0.4265940189361572,
				-0.6815172433853149,
				-1.439500093460083
			]
		},
		{
			"mesh":8,
			"name":"Cylinder.006",
			"rotation":[
				0.6205000281333923,
				0,
				0,
				0.7842065691947937
			],
			"scale":[
				0.07229864597320557,
				0.07229864597320557,
				0.07229864597320557
			],
			"translation":[
				-0.20251066982746124,
				-0.6815172433853149,
				-1.439500093460083
			]
		},
		{
			"mesh":9,
			"name":"Cylinder.007",
			"rotation":[
				0.6205000281333923,
				0,
				0,
				0.7842065691947937
			],
			"scale":[
				0.07229864597320557,
				0.07229864597320557,
				0.07229864597320557
			],
			"translation":[
				0.025370702147483826,
				-0.6815172433853149,
				-1.439500093460083
			]
		},
		{
			"mesh":10,
			"name":"Cube.004",
			"rotation":[
				-0.10958043485879898,
				0,
				0,
				0.9939780235290527
			],
			"scale":[
				0.07496456056833267,
				0.0337088406085968,
				0.03498823940753937
			],
			"translation":[
				-0.43044257164001465,
				-0.9329313039779663,
				-1.3366930484771729
			]
		},
		{
			"mesh":11,
			"name":"Cube.005",
			"rotation":[
				-0.10958043485879898,
				0,
				0,
				0.9939780235290527
			],
			"scale":[
				0.07496456056833267,
				0.0337088406085968,
				0.03498823940753937
			],
			"translation":[
				-0.21152877807617188,
				-0.9329313039779663,
				-1.3366930484771729
			]
		},
		{
			"mesh":12,
			"name":"Cube.006",
			"rotation":[
				-0.10958043485879898,
				0,
				0,
				0.9939780235290527
			],
			"scale":[
				0.07496456056833267,
				0.0337088406085968,
				0.03498823940753937
			],
			"translation":[
				0.025847628712654114,
				-0.9329313039779663,
				-1.3366930484771729
			]
		},
		{
			"mesh":13,
			"name":"Cube.007",
			"rotation":[
				-0.13428044319152832,
				0,
				0,
				0.9909433722496033
			],
			"scale":[
				0.07496456056833267,
				0.0337088406085968,
				0.03498823940753937
			],
			"translation":[
				0.025847628712654114,
				-1.070082187652588,
				-1.3024989366531372
			]
		},
		{
			"mesh":14,
			"name":"Cube.008",
			"rotation":[
				-0.13428044319152832,
				0,
				0,
				0.9909433722496033
			],
			"scale":[
				0.07496456056833267,
				0.0337088406085968,
				0.03498823940753937
			],
			"translation":[
				-0.20625373721122742,
				-1.070082187652588,
				-1.3024989366531372
			]
		},
		{
			"mesh":15,
			"name":"Cube.009",
			"rotation":[
				-0.13428044319152832,
				0,
				0,
				0.9909433722496033
			],
			"scale":[
				0.07496456056833267,
				0.0337088406085968,
				0.03498823940753937
			],
			"translation":[
				-0.43835508823394775,
				-1.070082187652588,
				-1.3024989366531372
			]
		},
		{
			"mesh":16,
			"name":"Cylinder.009",
			"rotation":[
				0.6205000281333923,
				0,
				0,
				0.7842065691947937
			],
			"scale":[
				0.07229864597320557,
				0.07229864597320557,
				0.07229864597320557
			],
			"translation":[
				-1.3795099258422852,
				-0.8271080851554871,
				-1.439500093460083
			]
		},
		{
			"mesh":17,
			"name":"Cylinder.010",
			"rotation":[
				0.592510998249054,
				0,
				0,
				0.8055624961853027
			],
			"scale":[
				0.09230753034353256,
				0.09230753034353256,
				0.09230753034353256
			],
			"translation":[
				0.6110244393348694,
				-1.094640851020813,
				-1.2755026817321777
			]
		}
	],
	"meshes":[
		{
			"name":"Cube.001",
			"primitives":[
				{
					"attributes":{
						"POSITION":0,
						"TEXCOORD_0":1,
						"NORMAL":2
					},
					"indices":3
				}
			]
		},
		{
			"name":"Cylinder",
			"primitives":[
				{
					"attributes":{
						"POSITION":4,
						"TEXCOORD_0":5,
						"NORMAL":6
					},
					"indices":7
				}
			]
		},
		{
			"name":"Cylinder.001",
			"primitives":[
				{
					"attributes":{
						"POSITION":8,
						"TEXCOORD_0":9,
						"NORMAL":10
					},
					"indices":7
				}
			]
		},
		{
			"name":"Cylinder.002",
			"primitives":[
				{
					"attributes":{
						"POSITION":11,
						"TEXCOORD_0":12,
						"NORMAL":13
					},
					"indices":7
				}
			]
		},
		{
			"name":"Cylinder.003",
			"primitives":[
				{
					"attributes":{
						"POSITION":14,
						"TEXCOORD_0":15,
						"NORMAL":16
					},
					"indices":7
				}
			]
		},
		{
			"name":"Cube.004",
			"primitives":[
				{
					"attributes":{
						"POSITION":17,
						"TEXCOORD_0":18,
						"NORMAL":19
					},
					"indices":20
				}
			]
		},
		{
			"name":"Cylinder.004",
			"primitives":[
				{
					"attributes":{
						"POSITION":21,
						"TEXCOORD_0":22,
						"NORMAL":23
					},
					"indices":7
				}
			]
		},
		{
			"name":"Cylinder.005",
			"primitives":[
				{
					"attributes":{
						"POSITION":24,
						"TEXCOORD_0":25,
						"NORMAL":26
					},
					"indices":27
				}
			]
		},
		{
			"name":"Cylinder.006",
			"primitives":[
				{
					"attributes":{
						"POSITION":28,
						"TEXCOORD_0":29,
						"NORMAL":30
					},
					"indices":27
				}
			]
		},
		{
			"name":"Cylinder.007",
			"primitives":[
				{
					"attributes":{
						"POSITION":31,
						"TEXCOORD_0":32,
						"NORMAL":33
					},
					"indices":27
				}
			]
		},
		{
			"name":"Cube.005",
			"primitives":[
				{
					"attributes":{
						"POSITION":34,
						"TEXCOORD_0":35,
						"NORMAL":36
					},
					"indices":37
				}
			]
		},
		{
			"name":"Cube.006",
			"primitives":[
				{
					"attributes":{
						"POSITION":38,
						"TEXCOORD_0":39,
						"NORMAL":40
					},
					"indices":37
				}
			]
		},
		{
			"name":"Cube.007",
			"primitives":[
				{
					"attributes":{
						"POSITION":41,
						"TEXCOORD_0":42,
						"NORMAL":43
					},
					"indices":37
				}
			]
		},
		{
			"name":"Cube.008",
			"primitives":[
				{
					"attributes":{
						"POSITION":44,
						"TEXCOORD_0":45,
						"NORMAL":46
					},
					"indices":37
				}
			]
		},
		{
			"name":"Cube.009",
			"primitives":[
				{
					"attributes":{
						"POSITION":47,
						"TEXCOORD_0":48,
						"NORMAL":49
					},
					"indices":37
				}
			]
		},
		{
			"name":"Cube.010",
			"primitives":[
				{
					"attributes":{
						"POSITION":50,
						"TEXCOORD_0":51,
						"NORMAL":52
					},
					"indices":37
				}
			]
		},
		{
			"name":"Cylinder.009",
			"primitives":[
				{
					"attributes":{
						"POSITION":53,
						"TEXCOORD_0":54,
						"NORMAL":55
					},
					"indices":27
				}
			]
		},
		{
			"name":"Cylinder.010",
			"primitives":[
				{
					"attributes":{
						"POSITION":56,
						"TEXCOORD_0":57,
						"NORMAL":58
					},
					"indices":59
				}
			]
		}
	],
	"accessors":[
		{
			"bufferView":0,
			"componentType":5126,
			"count":938,
			"max":[
				1.0980931520462036,
				1.16863214969635,
				1.2233235836029053
			],
			"min":[
				-1.0752335786819458,
				-1.611686110496521,
				-0.8435214757919312
			],
			"type":"VEC3"
		},
		{
			"bufferView":1,
			"componentType":5126,
			"count":938,
			"type":"VEC2"
		},
		{
			"bufferView":2,
			"componentType":5126,
			"count":938,
			"type":"VEC3"
		},
		{
			"bufferView":3,
			"componentType":5123,
			"count":1890,
			"type":"SCALAR"
		},
		{
			"bufferView":4,
			"componentType":5126,
			"count":130,
			"max":[
				1,
				1,
				1
			],
			"min":[
				-1,
				-1,
				-1
			],
			"type":"VEC3"
		},
		{
			"bufferView":5,
			"componentType":5126,
			"count":130,
			"type":"VEC2"
		},
		{
			"bufferView":6,
			"componentType":5126,
			"count":130,
			"type":"VEC3"
		},
		{
			"bufferView":7,
			"componentType":5123,
			"count":372,
			"type":"SCALAR"
		},
		{
			"bufferView":8,
			"componentType":5126,
			"count":130,
			"max":[
				1,
				1,
				1
			],
			"min":[
				-1,
				-1,
				-1
			],
			"type":"VEC3"
		},
		{
			"bufferView":9,
			"componentType":5126,
			"count":130,
			"type":"VEC2"
		},
		{
			"bufferView":10,
			"componentType":5126,
			"count":130,
			"type":"VEC3"
		},
		{
			"bufferView":11,
			"componentType":5126,
			"count":130,
			"max":[
				1,
				1,
				1
			],
			"min":[
				-1,
				-1,
				-1
			],
			"type":"VEC3"
		},
		{
			"bufferView":12,
			"componentType":5126,
			"count":130,
			"type":"VEC2"
		},
		{
			"bufferView":13,
			"componentType":5126,
			"count":130,
			"type":"VEC3"
		},
		{
			"bufferView":14,
			"componentType":5126,
			"count":130,
			"max":[
				1,
				1,
				1
			],
			"min":[
				-1,
				-1,
				-1
			],
			"type":"VEC3"
		},
		{
			"bufferView":15,
			"componentType":5126,
			"count":130,
			"type":"VEC2"
		},
		{
			"bufferView":16,
			"componentType":5126,
			"count":130,
			"type":"VEC3"
		},
		{
			"bufferView":17,
			"componentType":5126,
			"count":264,
			"max":[
				1,
				1,
				1
			],
			"min":[
				-1,
				-1,
				-1
			],
			"type":"VEC3"
		},
		{
			"bufferView":18,
			"componentType":5126,
			"count":264,
			"type":"VEC2"
		},
		{
			"bufferView":19,
			"componentType":5126,
			"count":264,
			"type":"VEC3"
		},
		{
			"bufferView":20,
			"componentType":5123,
			"count":516,
			"type":"SCALAR"
		},
		{
			"bufferView":21,
			"componentType":5126,
			"count":130,
			"max":[
				1,
				1,
				1
			],
			"min":[
				-1,
				-1,
				-1
			],
			"type":"VEC3"
		},
		{
			"bufferView":22,
			"componentType":5126,
			"count":130,
			"type":"VEC2"
		},
		{
			"bufferView":23,
			"componentType":5126,
			"count":130,
			"type":"VEC3"
		},
		{
			"bufferView":24,
			"componentType":5126,
			"count":192,
			"max":[
				1,
				1,
				1
			],
			"min":[
				-1,
				-1,
				-1
			],
			"type":"VEC3"
		},
		{
			"bufferView":25,
			"componentType":5126,
			"count":192,
			"type":"VEC2"
		},
		{
			"bufferView":26,
			"componentType":5126,
			"count":192,
			"type":"VEC3"
		},
		{
			"bufferView":27,
			"componentType":5123,
			"count":372,
			"type":"SCALAR"
		},
		{
			"bufferView":28,
			"componentType":5126,
			"count":192,
			"max":[
				1,
				1,
				1
			],
			"min":[
				-1,
				-1,
				-1
			],
			"type":"VEC3"
		},
		{
			"bufferView":29,
			"componentType":5126,
			"count":192,
			"type":"VEC2"
		},
		{
			"bufferView":30,
			"componentType":5126,
			"count":192,
			"type":"VEC3"
		},
		{
			"bufferView":31,
			"componentType":5126,
			"count":192,
			"max":[
				1,
				1,
				1
			],
			"min":[
				-1,
				-1,
				-1
			],
			"type":"VEC3"
		},
		{
			"bufferView":32,
			"componentType":5126,
			"count":192,
			"type":"VEC2"
		},
		{
			"bufferView":33,
			"componentType":5126,
			"count":192,
			"type":"VEC3"
		},
		{
			"bufferView":34,
			"componentType":5126,
			"count":336,
			"max":[
				1,
				1,
				1
			],
			"min":[
				-1,
				-1,
				-1
			],
			"type":"VEC3"
		},
		{
			"bufferView":35,
			"componentType":5126,
			"count":336,
			"type":"VEC2"
		},
		{
			"bufferView":36,
			"componentType":5126,
			"count":336,
			"type":"VEC3"
		},
		{
			"bufferView":37,
			"componentType":5123,
			"count":660,
			"type":"SCALAR"
		},
		{
			"bufferView":38,
			"componentType":5126,
			"count":336,
			"max":[
				1,
				1,
				1
			],
			"min":[
				-1,
				-1,
				-1
			],
			"type":"VEC3"
		},
		{
			"bufferView":39,
			"componentType":5126,
			"count":336,
			"type":"VEC2"
		},
		{
			"bufferView":40,
			"componentType":5126,
			"count":336,
			"type":"VEC3"
		},
		{
			"bufferView":41,
			"componentType":5126,
			"count":336,
			"max":[
				1,
				1,
				1
			],
			"min":[
				-1,
				-1,
				-1
			],
			"type":"VEC3"
		},
		{
			"bufferView":42,
			"componentType":5126,
			"count":336,
			"type":"VEC2"
		},
		{
			"bufferView":43,
			"componentType":5126,
			"count":336,
			"type":"VEC3"
		},
		{
			"bufferView":44,
			"componentType":5126,
			"count":336,
			"max":[
				1,
				1,
				1
			],
			"min":[
				-1,
				-1,
				-1
			],
			"type":"VEC3"
		},
		{
			"bufferView":45,
			"componentType":5126,
			"count":336,
			"type":"VEC2"
		},
		{
			"bufferView":46,
			"componentType":5126,
			"count":336,
			"type":"VEC3"
		},
		{
			"bufferView":47,
			"componentType":5126,
			"count":336,
			"max":[
				1,
				1,
				1
			],
			"min":[
				-1,
				-1,
				-1
			],
			"type":"VEC3"
		},
		{
			"bufferView":48,
			"componentType":5126,
			"count":336,
			"type":"VEC2"
		},
		{
			"bufferView":49,
			"componentType":5126,
			"count":336,
			"type":"VEC3"
		},
		{
			"bufferView":50,
			"componentType":5126,
			"count":336,
			"max":[
				1,
				1,
				1
			],
			"min":[
				-1,
				-1,
				-1
			],
			"type":"VEC3"
		},
		{
			"bufferView":51,
			"componentType":5126,
			"count":336,
			"type":"VEC2"
		},
		{
			"bufferView":52,
			"componentType":5126,
			"count":336,
			"type":"VEC3"
		},
		{
			"bufferView":53,
			"componentType":5126,
			"count":192,
			"max":[
				1,
				1,
				1
			],
			"min":[
				-1,
				-1,
				-1
			],
			"type":"VEC3"
		},
		{
			"bufferView":54,
			"componentType":5126,
			"count":192,
			"type":"VEC2"
		},
		{
			"bufferView":55,
			"componentType":5126,
			"count":192,
			"type":"VEC3"
		},
		{
			"bufferView":56,
			"componentType":5126,
			"count":320,
			"max":[
				1.4894169569015503,
				1,
				1.489416480064392
			],
			"min":[
				-1.489416480064392,
				-1,
				-1.4894174337387085
			],
			"type":"VEC3"
		},
		{
			"bufferView":57,
			"componentType":5126,
			"count":320,
			"type":"VEC2"
		},
		{
			"bufferView":58,
			"componentType":5126,
			"count":320,
			"type":"VEC3"
		},
		{
			"bufferView":59,
			"componentType":5123,
			"count":564,
			"type":"SCALAR"
		}
	],
	"bufferViews":[
		{
			"buffer":0,
			"byteLength":11256,
			"byteOffset":0,
			"target":34962
		},
		{
			"buffer":0,
			"byteLength":7504,
			"byteOffset":11256,
			"target":34962
		},
		{
			"buffer":0,
			"byteLength":11256,
			"byteOffset":18760,
			"target":34962
		},
		{
			"buffer":0,
			"byteLength":3780,
			"byteOffset":30016,
			"target":34963
		},
		{
			"buffer":0,
			"byteLength":1560,
			"byteOffset":33796,
			"target":34962
		},
		{
			"buffer":0,
			"byteLength":1040,
			"byteOffset":35356,
			"target":34962
		},
		{
			"buffer":0,
			"byteLength":1560,
			"byteOffset":36396,
			"target":34962
		},
		{
			"buffer":0,
			"byteLength":744,
			"byteOffset":37956,
			"target":34963
		},
		{
			"buffer":0,
			"byteLength":1560,
			"byteOffset":38700,
			"target":34962
		},
		{
			"buffer":0,
			"byteLength":1040,
			"byteOffset":40260,
			"target":34962
		},
		{
			"buffer":0,
			"byteLength":1560,
			"byteOffset":41300,
			"target":34962
		},
		{
			"buffer":0,
			"byteLength":1560,
			"byteOffset":42860,
			"target":34962
		},
		{
			"buffer":0,
			"byteLength":1040,
			"byteOffset":44420,
			"target":34962
		},
		{
			"buffer":0,
			"byteLength":1560,
			"byteOffset":45460,
			"target":34962
		},
		{
			"buffer":0,
			"byteLength":1560,
			"byteOffset":47020,
			"target":34962
		},
		{
			"buffer":0,
			"byteLength":1040,
			"byteOffset":48580,
			"target":34962
		},
		{
			"buffer":0,
			"byteLength":1560,
			"byteOffset":49620,
			"target":34962
		},
		{
			"buffer":0,
			"byteLength":3168,
			"byteOffset":51180,
			"target":34962
		},
		{
			"buffer":0,
			"byteLength":2112,
			"byteOffset":54348,
			"target":34962
		},
		{
			"buffer":0,
			"byteLength":3168,
			"byteOffset":56460,
			"target":34962
		},
		{
			"buffer":0,
			"byteLength":1032,
			"byteOffset":59628,
			"target":34963
		},
		{
			"buffer":0,
			"byteLength":1560,
			"byteOffset":60660,
			"target":34962
		},
		{
			"buffer":0,
			"byteLength":1040,
			"byteOffset":62220,
			"target":34962
		},
		{
			"buffer":0,
			"byteLength":1560,
			"byteOffset":63260,
			"target":34962
		},
		{
			"buffer":0,
			"byteLength":2304,
			"byteOffset":64820,
			"target":34962
		},
		{
			"buffer":0,
			"byteLength":1536,
			"byteOffset":67124,
			"target":34962
		},
		{
			"buffer":0,
			"byteLength":2304,
			"byteOffset":68660,
			"target":34962
		},
		{
			"buffer":0,
			"byteLength":744,
			"byteOffset":70964,
			"target":34963
		},
		{
			"buffer":0,
			"byteLength":2304,
			"byteOffset":71708,
			"target":34962
		},
		{
			"buffer":0,
			"byteLength":1536,
			"byteOffset":74012,
			"target":34962
		},
		{
			"buffer":0,
			"byteLength":2304,
			"byteOffset":75548,
			"target":34962
		},
		{
			"buffer":0,
			"byteLength":2304,
			"byteOffset":77852,
			"target":34962
		},
		{
			"buffer":0,
			"byteLength":1536,
			"byteOffset":80156,
			"target":34962
		},
		{
			"buffer":0,
			"byteLength":2304,
			"byteOffset":81692,
			"target":34962
		},
		{
			"buffer":0,
			"byteLength":4032,
			"byteOffset":83996,
			"target":34962
		},
		{
			"buffer":0,
			"byteLength":2688,
			"byteOffset":88028,
			"target":34962
		},
		{
			"buffer":0,
			"byteLength":4032,
			"byteOffset":90716,
			"target":34962
		},
		{
			"buffer":0,
			"byteLength":1320,
			"byteOffset":94748,
			"target":34963
		},
		{
			"buffer":0,
			"byteLength":4032,
			"byteOffset":96068,
			"target":34962
		},
		{
			"buffer":0,
			"byteLength":2688,
			"byteOffset":100100,
			"target":34962
		},
		{
			"buffer":0,
			"byteLength":4032,
			"byteOffset":102788,
			"target":34962
		},
		{
			"buffer":0,
			"byteLength":4032,
			"byteOffset":106820,
			"target":34962
		},
		{
			"buffer":0,
			"byteLength":2688,
			"byteOffset":110852,
			"target":34962
		},
		{
			"buffer":0,
			"byteLength":4032,
			"byteOffset":113540,
			"target":34962
		},
		{
			"buffer":0,
			"byteLength":4032,
			"byteOffset":117572,
			"target":34962
		},
		{
			"buffer":0,
			"byteLength":2688,
			"byteOffset":121604,
			"target":34962
		},
		{
			"buffer":0,
			"byteLength":4032,
			"byteOffset":124292,
			"target":34962
		},
		{
			"buffer":0,
			"byteLength":4032,
			"byteOffset":128324,
			"target":34962
		},
		{
			"buffer":0,
			"byteLength":2688,
			"byteOffset":132356,
			"target":34962
		},
		{
			"buffer":0,
			"byteLength":4032,
			"byteOffset":135044,
			"target":34962
		},
		{
			"buffer":0,
			"byteLength":4032,
			"byteOffset":139076,
			"target":34962
		},
		{
			"buffer":0,
			"byteLength":2688,
			"byteOffset":143108,
			"target":34962
		},
		{
			"buffer":0,
			"byteLength":4032,
			"byteOffset":145796,
			"target":34962
		},
		{
			"buffer":0,
			"byteLength":2304,
			"byteOffset":149828,
			"target":34962
		},
		{
			"buffer":0,
			"byteLength":1536,
			"byteOffset":152132,
			"target":34962
		},
		{
			"buffer":0,
			"byteLength":2304,
			"byteOffset":153668,
			"target":34962
		},
		{
			"buffer":0,
			"byteLength":3840,
			"byteOffset":155972,
			"target":34962
		},
		{
			"buffer":0,
			"byteLength":2560,
			"byteOffset":159812,
			"target":34962
		},
		{
			"buffer":0,
			"byteLength":3840,
			"byteOffset":162372,
			"target":34962
		},
		{
			"buffer":0,
			"byteLength":1128,
			"byteOffset":166212,
			"target":34963
		}
	],
	"buffers":[
		{
			"byteLength":167340,
			"uri":"data:application/octet-stream;base64,"
		}
	]
}
